<svg width="16" height="16" viewBox="0 0 16 16" fill="none" xmlns="http://www.w3.org/2000/svg">
<path fill-rule="evenodd" clip-rule="evenodd" d="M4 5.3335C4 3.12436 5.79086 1.3335 8 1.3335C10.2091 1.3335 12 3.12436 12 5.3335V6.10038C12.1884 6.14167 12.3692 6.20178 12.544 6.29081C13.0457 6.54648 13.4537 6.95442 13.7094 7.45619C13.8742 7.77975 13.9399 8.12422 13.9705 8.49895C14 8.85974 14 9.30264 14 9.83928V10.8277C14 11.3644 14 11.8073 13.9705 12.168C13.9399 12.5428 13.8742 12.8872 13.7094 13.2108C13.4537 13.7126 13.0457 14.1205 12.544 14.3762C12.2204 14.541 11.8759 14.6068 11.5012 14.6374C11.1404 14.6668 10.6975 14.6668 10.1609 14.6668H5.83915C5.3025 14.6668 4.85958 14.6668 4.49878 14.6374C4.12405 14.6068 3.77958 14.541 3.45603 14.3762C2.95426 14.1205 2.54631 13.7126 2.29065 13.2108C2.12579 12.8872 2.06008 12.5428 2.02946 12.168C1.99999 11.8073 1.99999 11.3643 2 10.8277V9.83929C1.99999 9.30265 1.99999 8.85974 2.02946 8.49895C2.06008 8.12421 2.12579 7.77975 2.29065 7.45619C2.54631 6.95442 2.95426 6.54648 3.45603 6.29081C3.63076 6.20178 3.8116 6.14167 4 6.10038V5.3335ZM10.6667 5.3335V6.00125H5.33333V5.3335C5.33333 3.86074 6.52724 2.66683 8 2.66683C9.47276 2.66683 10.6667 3.86074 10.6667 5.3335ZM8.66667 9.66683C8.66667 9.29864 8.36819 9.00016 8 9.00016C7.63181 9.00016 7.33333 9.29864 7.33333 9.66683V11.0002C7.33333 11.3684 7.63181 11.6668 8 11.6668C8.36819 11.6668 8.66667 11.3684 8.66667 11.0002V9.66683Z" fill="#262626" fill-opacity="0.5"/>
</svg>
